# xmcd
#
# Track frame offsets:
#	150
#	24450
#	47475
#	63750
#	81450
#	94950
#	115050
#	130800
#	150975
#	175125
#
# Disc length: 2569 seconds
#
# Revision: 1
# Processed by: cddbd v1.5.2PL0 Copyright (c) Steve Scherf et al.
# Submitted via: audiograbber 1.83.01
#
DISCID=740a070a
DTITLE=Serge Gainsbourg - Erotheque
DYEAR=1977
DGENRE=Ballad
TTITLE0=Nathalie Et Serge - Je T' Aime...Moi Non Plus
TTITLE1=Nathalie Et Christine Avec Les Vibrations - Kiss
TTITLE2=Les Vibrations - Emmanuelle
TTITLE3=Andrea E Nicole - Sa Prima Volta
TTITLE4=Nathalie Et Christine - Je Fais L' Amore
TTITLE5=Nathalie Et Christine Avec Les Vibrations - Zemmes
TTITLE6=Les Vibrations - Eroscope
TTITLE7=Les Vibrations - Emmanuelle 2
TTITLE8=Nathalie, Christine, Jean-Marie Et Les Vibrations - Saure
TTITLE9=Les Vibrations - Historie D' o
EXTD=
EXTT0=
EXTT1=
EXTT2=
EXTT3=
EXTT4=
EXTT5=
EXTT6=
EXTT7=
EXTT8=
EXTT9=
PLAYORDER=
